<?xml version="1.0" encoding="utf-8"?>
<!-- Generator: Adobe Illustrator 18.1.0, SVG Export Plug-In . SVG Version: 6.00 Build 0)  -->
<svg version="1.1" id="Layer_1" xmlns="http://www.w3.org/2000/svg" xmlns:xlink="http://www.w3.org/1999/xlink" x="0px" y="0px"
	 viewBox="0 0 1007.3 255.6" enable-background="new 0 0 1007.3 255.6" xml:space="preserve">
<g>
	<polygon fill="#E40D7F" points="76.7,59.3 32.1,2 0,2 0,3.6 0,119.8 34.8,119.8 34.8,60.2 81.2,119.8 111.5,119.8 111.5,2 76.7,2 	
		"/>
	<g>
		<path fill="#E40D7F" d="M209.4,72.9V49.2h-54.2V33.1h59.9V2h-95v117.9h35.1V78.9h54.2V68.3C208.3,65.4,208.3,75.8,209.4,72.9"/>
	</g>
	<polygon fill="#E40D7F" points="328,2 224.3,2 224.3,33.1 258.6,33.1 258.6,119.8 293.7,119.8 293.7,33.1 328,33.1 	"/>
	<g>
		<path fill="#E40D7F" d="M386.7,45.2c-7.9-1.8-12.7-3.3-15.4-4.8c-2.6-1.6-3-2.5-3.1-4.7v-0.3c0-2.8,2.4-5.6,9.8-5.7
			c9.7,0,20.9,3.8,31.1,11l1.4,1l17.7-25.1l-1.2-1C414.3,5.3,398.6,0,378.8,0c-28.1,0-45.9,16-46,38.3v0.3
			c0,24.8,20.2,32.2,44.5,37.6c15.7,3.7,18.1,6.1,18,9.3v0.3c0,3.5-3.1,6-11.4,6.2c-12.8,0-25-4.6-36.1-13.4l-1.3-1l-19.8,23.6
			l1.2,1.1c14.4,12.9,34.1,19.4,54.8,19.4c28.3,0,47.9-14.5,48-39v-0.3C430.8,59.9,413.1,50.8,386.7,45.2"/>
	</g>
	<rect x="507.3" y="2" fill="#9B9B9C" width="3.9" height="253.2"/>
	<g>
		<g>
			<path fill="#9B9B9C" d="M584.6,1.9h12.7l20.1,25.9V1.9h13.4v48.9h-11.9L598,24v26.8h-13.4V1.9z"/>
			<path fill="#9B9B9C" d="M653.7,1.6h13.1l20.8,49.3H673l-3.6-8.7h-18.9l-3.5,8.7h-14.3L653.7,1.6z M665.5,31.5l-5.5-13.9
				l-5.5,13.9H665.5z"/>
			<path fill="#9B9B9C" d="M692.4,13.8h-14.7V1.9h42.9v11.9H706v37h-13.6V13.8z"/>
			<path fill="#9B9B9C" d="M725.6,1.9h13.6v48.9h-13.6V1.9z"/>
			<path fill="#9B9B9C" d="M743.7,26.5v-0.1c0-14,11.3-25.4,26.4-25.4s26.3,11.3,26.3,25.3v0.1c0,14-11.3,25.4-26.4,25.4
				C754.9,51.8,743.7,40.6,743.7,26.5z M782.6,26.5v-0.1c0-7.1-5.1-13.2-12.6-13.2c-7.4,0-12.4,6-12.4,13.1v0.1
				c0,7.1,5.1,13.2,12.5,13.2C777.6,39.6,782.6,33.6,782.6,26.5z"/>
			<path fill="#9B9B9C" d="M800.7,1.9h12.7l20.1,25.9V1.9h13.4v48.9h-11.9L814.2,24v26.8h-13.4V1.9z"/>
			<path fill="#9B9B9C" d="M871.2,1.6h13.1l20.8,49.3h-14.5l-3.6-8.7h-18.9l-3.5,8.7h-14.3L871.2,1.6z M883.1,31.5l-5.4-13.9
				l-5.5,13.9H883.1z"/>
			<path fill="#9B9B9C" d="M908.4,1.9H922v37h23.7v11.9h-37.2V1.9z"/>
		</g>
		<g>
			<path fill="#9B9B9C" d="M584.6,69.8h39.1v11.9h-25.6V90h23.1v11.3h-23.1v17.5h-13.6V69.8z"/>
			<path fill="#9B9B9C" d="M628.8,69.8h13.6v48.9h-13.6V69.8z"/>
			<path fill="#9B9B9C" d="M648.6,69.8h13.6v37h23.7v11.9h-37.2V69.8z"/>
			<path fill="#9B9B9C" d="M690.3,69.8h14.3l11.7,18.9l11.7-18.9h14.3v48.9h-13.5V90.7l-12.5,19.1H716l-12.4-19v28h-13.3V69.8z"/>
			<path fill="#9B9B9C" d="M784.5,69.5h13.1l20.8,49.3h-14.5l-3.6-8.7h-18.9l-3.5,8.7h-14.3L784.5,69.5z M796.3,99.5l-5.5-13.9
				l-5.5,13.9H796.3z"/>
			<path fill="#9B9B9C" d="M821.7,69.8h12.7l20.1,25.9V69.8h13.4v48.9H856l-20.9-26.8v26.8h-13.4V69.8z"/>
			<path fill="#9B9B9C" d="M873.8,69.8h18.9c17.5,0,27.6,10.1,27.6,24.2v0.1c0,14.1-10.3,24.6-27.9,24.6h-18.6V69.8z M892.9,106.7
				c8.1,0,13.5-4.5,13.5-12.4v-0.1c0-7.8-5.4-12.4-13.5-12.4h-5.5v24.9H892.9z"/>
		</g>
		<g>
			<path fill="#9B9B9C" d="M596.6,149.6h-14.7v-11.9h42.9v11.9h-14.7v37h-13.6V149.6z"/>
			<path fill="#9B9B9C" d="M630.7,137.8h39.3v11.5h-25.9v7.4h23.5v10.7h-23.5v7.8h26.3v11.5h-39.7V137.8z"/>
			<path fill="#9B9B9C" d="M676,137.8h13.6v37h23.7v11.9H676V137.8z"/>
			<path fill="#9B9B9C" d="M719.1,137.8h39.3v11.5h-25.9v7.4H756v10.7h-23.5v7.8h26.3v11.5h-39.7V137.8z"/>
			<path fill="#9B9B9C" d="M761.8,137.8h15.2l11.1,31l11.1-31H814L794.2,187h-12.6L761.8,137.8z"/>
			<path fill="#9B9B9C" d="M817.7,137.8h13.6v48.9h-13.6V137.8z"/>
			<path fill="#9B9B9C" d="M835.1,179.4l7.5-9c4.8,3.8,10.2,5.9,15.9,5.9c3.6,0,5.6-1.3,5.6-3.4v-0.1c0-2-1.6-3.1-8.2-4.7
				c-10.4-2.4-18.4-5.3-18.4-15.4v-0.1c0-9.1,7.2-15.7,18.9-15.7c8.3,0,14.8,2.2,20.1,6.5l-6.8,9.6c-4.5-3.1-9.4-4.8-13.7-4.8
				c-3.3,0-4.9,1.4-4.9,3.1v0.1c0,2.2,1.7,3.2,8.5,4.8c11.3,2.4,18.2,6.1,18.2,15.2v0.1c0,10-7.9,15.9-19.8,15.9
				C849.4,187.5,841.1,184.8,835.1,179.4z"/>
			<path fill="#9B9B9C" d="M883.3,137.8h13.6v48.9h-13.6V137.8z"/>
			<path fill="#9B9B9C" d="M902.8,162.4v-0.1c0-14,11.3-25.4,26.4-25.4c15.1,0,26.3,11.3,26.3,25.3v0.1c0,14-11.3,25.4-26.4,25.4
				C913.9,187.7,902.8,176.4,902.8,162.4z M941.6,162.4v-0.1c0-7.1-5.1-13.2-12.6-13.2c-7.4,0-12.4,6-12.4,13.1v0.1
				c0,7.1,5.1,13.2,12.5,13.2C936.7,175.4,941.6,169.4,941.6,162.4z"/>
			<path fill="#9B9B9C" d="M961.1,137.8h12.7l20.1,25.9v-25.9h13.4v48.9h-11.9l-20.9-26.8v26.8h-13.4V137.8z"/>
		</g>
		<g>
			<path fill="#9B9B9C" d="M580.9,247.3l7.5-9c4.8,3.8,10.2,5.9,15.9,5.9c3.6,0,5.6-1.3,5.6-3.4v-0.1c0-2-1.6-3.1-8.2-4.7
				c-10.4-2.4-18.4-5.3-18.4-15.4v-0.1c0-9.1,7.2-15.7,18.9-15.7c8.3,0,14.8,2.2,20.1,6.5l-6.8,9.6c-4.5-3.1-9.4-4.8-13.7-4.8
				c-3.3,0-4.9,1.4-4.9,3.1v0.1c0,2.2,1.7,3.2,8.5,4.8c11.3,2.4,18.2,6.1,18.2,15.2v0.1c0,10-7.9,15.9-19.8,15.9
				C595.2,255.4,586.9,252.7,580.9,247.3z"/>
			<path fill="#9B9B9C" d="M627.1,230.3v-0.1c0-14.3,11-25.4,25.8-25.4c10,0,16.4,4.2,20.8,10.2l-10.2,7.9c-2.8-3.5-6-5.7-10.7-5.7
				c-6.8,0-11.7,5.8-11.7,12.9v0.1c0,7.3,4.8,13.1,11.7,13.1c5.1,0,8.1-2.4,11-5.9l10.2,7.3c-4.6,6.4-10.8,11-21.7,11
				C638.4,255.6,627.1,244.9,627.1,230.3z"/>
			<path fill="#9B9B9C" d="M678.4,205.7h13.6V224h17.4v-18.3h13.6v48.9h-13.6V236h-17.4v18.6h-13.6V205.7z"/>
			<path fill="#9B9B9C" d="M728.6,230.3v-0.1c0-14,11.3-25.4,26.4-25.4c15.1,0,26.3,11.3,26.3,25.3v0.1c0,14-11.3,25.4-26.4,25.4
				C739.7,255.6,728.6,244.3,728.6,230.3z M767.4,230.3v-0.1c0-7.1-5.1-13.2-12.6-13.2c-7.4,0-12.4,6-12.4,13.1v0.1
				c0,7.1,5.1,13.2,12.5,13.2C762.5,243.3,767.4,237.3,767.4,230.3z"/>
			<path fill="#9B9B9C" d="M785.2,230.3v-0.1c0-14,11.3-25.4,26.4-25.4s26.3,11.3,26.3,25.3v0.1c0,14-11.3,25.4-26.4,25.4
				S785.2,244.3,785.2,230.3z M824.1,230.3v-0.1c0-7.1-5.1-13.2-12.6-13.2c-7.4,0-12.4,6-12.4,13.1v0.1c0,7.1,5.1,13.2,12.5,13.2
				C819.1,243.3,824.1,237.3,824.1,230.3z"/>
			<path fill="#9B9B9C" d="M842.3,205.7h13.6v37h23.7v11.9h-37.2V205.7z"/>
		</g>
	</g>
</g>
</svg>
